{"title":"Flickan .x264. AC3. Nordic + Eng_Sub.mkv","uid":5389544,"size":995500607,"categoryP":"video","categoryS":"movies","magnet":"?xt=urn:btih:728a1f767eb6c6f652aba1333640a5e19fa115d7&amp;dn=Flickan+.x264.+AC3.+Nordic+%2B+Eng_Sub.mkv&amp;tr=udp%3A%2F%2Ftracker.openbittorrent.com%3A80&amp;tr=udp%3A%2F%2Fopen.demonii.com%3A1337&amp;tr=udp%3A%2F%2Ftracker.coppersurfer.tk%3A6969&amp;tr=udp%3A%2F%2Fexodus.desync.com%3A6969","seeders":0,"leechers":1,"uploader":"Zen_Bud","files":-1,"time":1267000021,"description":"General\nComplete name                    : Flickan.mkv\nFormat                           : Matroska\nFile size                        : 949 MiB\nDuration                         : 1h 35mn\nOverall bit rate                 : 1 384 Kbps\n\n\nVideo\nID                               : 1\nFormat                           : AVC\n\nDuration                         : 1h 35mn\nBit rate                         : 909 Kbps\nWidth                            : 720 pixels\nHeight                           : 436 pixels\nDisplay aspect ratio             : 2.35:1\nFrame rate                       : 25.000 fps\nResolution                       : 8 bits\nColorimetry                      : 4:2:0\nScan type                        : Progressive\nBits/(Pixel*Frame)               : 0.116\nStream size                      : 623 MiB (66%)\nWriting library                  : x264 core 79\n\n\nAudio\nID                               : 2\nFormat                           : AC-3\nFormat/Info                      : Audio Coding 3\nCodec ID                         : A_AC3\nDuration                         : 1h 35mn\nBit rate mode                    : Constant\nBit rate                         : 448 Kbps\nChannel(s)                       : 6 channels\nChannel positions                : Front: L C R, Surround: L R, LFE\nSampling rate                    : 48.0 KHz\nStream size                      : 307 MiB (32%)\nLanguage                         : Swedish\n\nText #1\nLanguage                         : Swedish\n\nText #2\nLanguage                         : Danish\n\nText #3\nLanguage                         : Finnish\n\nText #4\nLanguage                         : Norwegian\n\nText #5\nLanguage                         : English\n\n","torrent":{"xt":"urn:btih:728a1f767eb6c6f652aba1333640a5e19fa115d7","amp;dn":"Flickan+.x264.+AC3.+Nordic+%2B+Eng_Sub.mkv","amp;tr":["udp%3A%2F%2Ftracker.openbittorrent.com%3A80","udp%3A%2F%2Fopen.demonii.com%3A1337","udp%3A%2F%2Ftracker.coppersurfer.tk%3A6969","udp%3A%2F%2Fexodus.desync.com%3A6969"],"infoHash":"728a1f767eb6c6f652aba1333640a5e19fa115d7","infoHashBuffer":{"type":"Buffer","data":[114,138,31,118,126,182,198,246,82,171,161,51,54,64,165,225,159,161,21,215]},"announce":[],"urlList":[]}}